<svg width="122" height="24" fill="none" xmlns="http://www.w3.org/2000/svg"><path d="M12.012 24c6.634 0 12.012-5.373 12.012-12S18.646 0 12.012 0 0 5.373 0 12s5.378 12 12.012 12z" fill="#B89A6C"/><path fill-rule="evenodd" clip-rule="evenodd" d="M18.636 8.84c1.753-.84 2.836.419 2.578 2.568-1.495.21-3.197-.681-2.578-2.568zm-.515-1.101c.103-1.206 1.34-1.258 2.114-.734-.31.996-1.29 1.677-2.114.734zm-2.94-2.464c1.238.052 2.424.786 1.702 2.15-1.804.366-1.908-1.311-1.701-2.15zm-3.609.367c-1.804-.996-1.134-3.407 1.341-4.718.877 1.52 1.289 4.928-1.34 4.718zm1.547 1.573l.052 3.67 4.228-2.517.309.681-4.589 3.617-.051 9.331-1.186.158c-.155-2.726-.31-5.4-.516-8.073-1.444-.839-3.454-2.254-4.898-3.093l.722-1.258 4.073 2.935-.31-5.242 2.166-.21zm-5.31-3.67c1.443.157 2.938.944 1.959 2.621-1.65.42-2.32-1.206-1.96-2.62z" fill="#fff"/><path fill-rule="evenodd" clip-rule="evenodd" d="M7.117 9.002C6.5 7.588 8.407 7.235 9.191 7.437c.28.96-.673 2.474-2.074 1.565zM1.848 7.841c1.57-.657 4.204-.202 3.868 1.919-1.626 1.162-3.812-.354-3.868-1.919zm3.475 3.434c.393 1.566-1.737 1.919-2.802 1.464.28-1.06 1.177-2.626 2.802-1.464z" fill="#fff"/><path d="M7.781 15.513l-.097-.347-.098-.347-.34-.05-1.702 4.907a3.018 3.018 0 003.696 0l-1.459-4.163z" fill="#fff"/><path d="M6.468 19.338l.973-3.646.875 3.693-1.848-.047z" fill="#B89A6C"/><path d="M17.641 12.867l-.122-.404-.182-.405-.425-.058-2.128 5.724c1.337.983 3.222.983 4.62 0l-1.763-4.857z" fill="#fff"/><path d="M15.708 17.485l.95-4.562.898 4.615-1.848-.053z" fill="#B89A6C"/><path d="M35.112 6.462h9.78v10.85h-1.998V8.165H37.11v9.145h-1.998V6.461zm16.353 2.48c2.366-.104 4.364 1.756 4.47 4.081.104 2.325-1.789 4.288-4.155 4.392h-.315a3.295 3.295 0 01-2.682-1.137v4.03h-1.998V8.993h1.893v1.085c.684-.775 1.735-1.24 2.787-1.137zm-1.998 6.096a2.527 2.527 0 001.787.723c.684 0 1.315-.258 1.788-.723a2.86 2.86 0 000-3.772 2.527 2.527 0 00-1.788-.723c-.683 0-1.314.258-1.787.723a2.869 2.869 0 00-.71 1.886c0 .692.252 1.36.71 1.886zm11.988 2.377a4.488 4.488 0 01-3.207-1.189 4.313 4.313 0 010-6.096 4.953 4.953 0 016.467 0 4.312 4.312 0 010 6.096c-.894.775-2.05 1.24-3.26 1.189zm-1.788-2.377a2.539 2.539 0 003.576 0 2.86 2.86 0 000-3.772 2.64 2.64 0 00-3.576 0 2.869 2.869 0 00-.71 1.886c0 .692.252 1.36.71 1.886zm13.146-2.067c.473.104.894.362 1.21.724.262.31.42.723.42 1.188 0 .775-.42 1.498-1.157 1.86-.894.517-1.893.775-2.892.723-1.262 0-2.524-.258-3.628-.878l.578-1.447a6.356 6.356 0 002.945.723 2.799 2.799 0 001.577-.31c.316-.155.579-.464.579-.826 0-.672-.579-1.033-1.63-1.033h-1.63v-1.292h1.472c.42 0 .789-.052 1.157-.258a.822.822 0 00.42-.724c0-.31-.21-.62-.525-.723a2.498 2.498 0 00-1.367-.258c-.947 0-1.84.206-2.682.62l-.526-1.447a7.64 7.64 0 013.365-.775c.947-.052 1.893.207 2.682.62.631.31 1.052.93 1.052 1.653 0 .414-.106.775-.368 1.085-.263.362-.631.62-1.052.775zm11.62.207c0 .155 0 .31-.052.568h-6.625a2.36 2.36 0 00.894 1.447 2.846 2.846 0 001.84.517c.841.051 1.683-.31 2.313-.93l1.052 1.188a4.132 4.132 0 01-3.365 1.343c-1.262.052-2.471-.361-3.365-1.188-.42-.39-.75-.864-.967-1.39a3.915 3.915 0 01-.295-1.658c-.053-1.137.42-2.222 1.209-3.049a4.235 4.235 0 013.155-1.188 4.12 4.12 0 013.05 1.188c.788.879 1.209 2.015 1.156 3.152zm-4.259-2.687a2.337 2.337 0 00-2.418 2.015h4.784a2.02 2.02 0 00-.788-1.446 2 2 0 00-1.578-.569zm16.143 6.82h-1.788v-5.528l-2.84 4.598h-.84l-2.787-4.65v5.528h-1.788V8.993h2.05l2.998 5.167 3.155-5.167h1.84v8.318zm3.47-8.318h6.836v8.266h-1.998v-6.613h-3.155l-.053 1.654c-.052.826-.105 1.498-.21 2.066-.105.569-.21 1.085-.421 1.602-.157.413-.42.826-.736 1.137a2.07 2.07 0 01-1.21.361c-.367 0-.735-.052-1.103-.155l.105-1.601c.105.051.263.051.368.051.63 0 1.052-.465 1.262-1.498.052-.362.105-1.033.158-2.015l.157-3.255zm16.879-.052c1.157-.051 2.314.414 3.155 1.189a4.412 4.412 0 010 6.096 4.235 4.235 0 01-3.155 1.189c-1.052 0-2.051-.31-2.839-.93a3.954 3.954 0 01-1.473-2.48h-1.419v3.306h-1.998V9.045h1.998v3.203h1.472a3.72 3.72 0 011.472-2.377 3.964 3.964 0 012.787-.93zm0 6.82c.684 0 1.315-.258 1.735-.723a2.987 2.987 0 000-3.772 2.495 2.495 0 00-1.735-.723c-.631 0-1.262.258-1.735.723a2.987 2.987 0 000 3.772 2.495 2.495 0 001.735.723z" fill="#262626"/></svg>