<svg width="122" height="24" viewBox="0 0 122 24" fill="none" xmlns="http://www.w3.org/2000/svg">
<path d="M12.0119 24C18.646 24 24.0239 18.6274 24.0239 12C24.0239 5.37259 18.646 0 12.0119 0C5.37794 0 0 5.37259 0 12C0 18.6274 5.37794 24 12.0119 24Z" fill="#B89A6C"/>
<path fill-rule="evenodd" clip-rule="evenodd" d="M18.6361 8.83967C20.3891 8.00092 21.4719 9.25904 21.2141 11.4083C19.7189 11.618 18.0174 10.7268 18.6361 8.83967ZM18.1205 7.73881C18.2236 6.53312 19.4611 6.4807 20.2345 7.00491C19.9251 8.00092 18.9455 8.6824 18.1205 7.73881ZM15.1816 5.275C16.419 5.32742 17.6049 6.06132 16.8831 7.42428C15.0785 7.79124 14.9754 6.11374 15.1816 5.275ZM11.5724 5.64195C9.76781 4.64593 10.4381 2.23454 12.913 0.923996C13.7895 2.44422 14.202 5.85164 11.5724 5.64195ZM13.1192 7.2146L13.1708 10.8841L17.3987 8.36787L17.708 9.04936L13.1192 12.6664L13.0676 21.9975L11.8818 22.1548C11.7271 19.4288 11.5724 16.7553 11.3662 14.0818C9.92249 13.2431 7.91165 11.8277 6.46797 10.989L7.18981 9.73084L11.263 12.6664L10.9537 7.42428L13.1192 7.2146ZM7.80853 3.54508C9.25221 3.70234 10.7474 4.48867 9.76781 6.16617C8.11789 6.58554 7.44761 4.96047 7.80853 3.54508Z" fill="white"/>
<path fill-rule="evenodd" clip-rule="evenodd" d="M7.117 9.00249C6.50041 7.58849 8.40622 7.235 9.19097 7.43699C9.47123 8.39649 8.51833 9.91149 7.117 9.00249ZM1.84799 7.84099C3.41748 7.18449 6.05199 7.639 5.71567 9.75999C4.09012 10.9215 1.90405 9.40649 1.84799 7.84099ZM5.3233 11.275C5.71567 12.8405 3.58564 13.194 2.52063 12.7395C2.8009 11.679 3.69775 10.1135 5.3233 11.275Z" fill="white"/>
<path d="M7.78102 15.5126L7.68376 15.1657L7.58649 14.8188L7.24607 14.7692L5.54398 19.6758C6.61387 20.5183 8.17007 20.5183 9.23996 19.6758L7.78102 15.5126Z" fill="white"/>
<path d="M6.46797 19.3385L7.4406 15.6923L8.31596 19.3846L6.46797 19.3385Z" fill="#B89A6C"/>
<path d="M17.641 12.8673L17.5194 12.4626L17.3371 12.0578L16.9116 12L14.7839 17.7243C16.1213 18.7073 18.0058 18.7073 19.4039 17.7243L17.641 12.8673Z" fill="white"/>
<path d="M15.7079 17.4854L16.6583 12.9231L17.5559 17.5385L15.7079 17.4854Z" fill="#B89A6C"/>
<path d="M35.1118 6.46154H44.892V17.3111H42.8939V8.16648H37.11V17.3111H35.1118V6.46154ZM51.4648 8.94145C53.8309 8.83812 55.829 10.698 55.9342 13.023C56.0394 15.3479 54.1464 17.3111 51.7802 17.4145H51.4648C50.4131 17.4661 49.4666 17.0528 48.7831 16.2778V20.3077H46.785V8.99311H48.6779V10.0781C49.3615 9.3031 50.4131 8.83812 51.4648 8.94145ZM49.4666 15.0379C49.9399 15.5029 50.5709 15.7612 51.2544 15.7612C51.938 15.7612 52.569 15.5029 53.0422 15.0379C53.9887 13.9529 53.9887 12.3513 53.0422 11.2664C52.569 10.8014 51.938 10.5431 51.2544 10.5431C50.5709 10.5431 49.9399 10.8014 49.4666 11.2664C49.0087 11.7916 48.7569 12.4605 48.7569 13.1521C48.7569 13.8438 49.0087 14.5127 49.4666 15.0379ZM61.4553 17.4145C60.2459 17.4661 59.0891 17.0011 58.2478 16.2262C56.5652 14.5212 56.5652 11.8347 58.2478 10.1297C60.0881 8.52813 62.875 8.52813 64.7153 10.1297C66.398 11.8347 66.398 14.5212 64.7153 16.2262C63.8214 17.0011 62.6646 17.4661 61.4553 17.4145ZM59.6675 15.0379C60.6665 16.0195 62.244 16.0195 63.243 15.0379C64.1895 13.9529 64.1895 12.3513 63.243 11.2664C62.244 10.3364 60.6665 10.3364 59.6675 11.2664C59.2095 11.7916 58.9576 12.4605 58.9576 13.1521C58.9576 13.8438 59.2095 14.5127 59.6675 15.0379ZM72.8129 12.9713C73.2862 13.0746 73.7068 13.333 74.0223 13.6946C74.2852 14.0046 74.4429 14.4179 74.4429 14.8829C74.4429 15.6579 74.0223 16.3812 73.2861 16.7428C72.3923 17.2595 71.3932 17.5178 70.3942 17.4661C69.1322 17.4661 67.8702 17.2078 66.766 16.5878L67.3444 15.1412C68.2383 15.6062 69.2374 15.8645 70.289 15.8645C70.8148 15.9162 71.3932 15.8129 71.8664 15.5545C72.1819 15.3995 72.4448 15.0896 72.4448 14.7279C72.4448 14.0563 71.8664 13.6946 70.8148 13.6946H69.1848V12.403H70.6571C71.0777 12.403 71.4458 12.3513 71.8139 12.1447C72.0768 11.9897 72.2345 11.7313 72.2345 11.4214C72.2345 11.1114 72.0242 10.8014 71.7087 10.698C71.288 10.4914 70.8148 10.3881 70.3416 10.4397C69.3951 10.4397 68.5012 10.6464 67.6599 11.0597L67.1341 9.61309C68.1857 9.09644 69.3425 8.83812 70.4993 8.83812C71.4458 8.78645 72.3923 9.04478 73.181 9.45809C73.812 9.76808 74.2326 10.3881 74.2326 11.1114C74.2326 11.5247 74.1275 11.8863 73.8646 12.1963C73.6016 12.558 73.2336 12.8163 72.8129 12.9713ZM84.4335 13.178C84.4335 13.333 84.4335 13.4879 84.3809 13.7463H77.7556C77.8608 14.3146 78.1762 14.8312 78.6495 15.1929C79.1753 15.5545 79.8063 15.7612 80.4898 15.7095C81.3311 15.7612 82.1725 15.3995 82.8034 14.7796L83.8551 15.9679C83.0138 16.8978 81.7518 17.4145 80.4898 17.3111C79.2279 17.3628 78.0185 16.9495 77.1246 16.1228C76.705 15.7326 76.3753 15.2587 76.1576 14.733C75.9399 14.2072 75.8395 13.6418 75.8627 13.0746C75.8101 11.938 76.2833 10.853 77.072 10.0264C77.9133 9.19977 79.0701 8.78645 80.2269 8.83812C81.3837 8.78645 82.4879 9.25144 83.2767 10.0264C84.0654 10.9047 84.486 12.0413 84.4335 13.178ZM80.1744 10.4914C78.965 10.4397 77.9133 11.318 77.7556 12.5063H82.5405C82.4879 11.938 82.225 11.4214 81.7518 11.0597C81.3312 10.6464 80.7528 10.4397 80.1744 10.4914ZM96.3169 17.3111H94.5292V11.783L91.6897 16.3812H90.8484L88.0616 11.7313V17.2595H86.2738V8.99311H88.3245L91.3217 14.1596L94.4766 8.99311H96.3169V17.3111ZM99.7873 8.99311H106.623V17.2595H104.625V10.6464H101.47L101.417 12.2997C101.365 13.1263 101.312 13.7979 101.207 14.3662C101.102 14.9346 100.997 15.4512 100.786 15.9679C100.629 16.3812 100.366 16.7945 100.05 17.1045C99.6822 17.3628 99.2615 17.4661 98.8409 17.4661C98.4728 17.4661 98.1047 17.4145 97.7366 17.3111L97.8418 15.7095C97.947 15.7612 98.1047 15.7612 98.2099 15.7612C98.8409 15.7612 99.2615 15.2962 99.4718 14.2629C99.5244 13.9013 99.577 13.2296 99.6296 12.248L99.7873 8.99311ZM116.666 8.94145C117.823 8.88978 118.98 9.35476 119.821 10.1297C121.451 11.8347 121.451 14.5212 119.821 16.2262C118.98 17.0528 117.823 17.4661 116.666 17.4145C115.614 17.4145 114.615 17.1045 113.827 16.4845C113.038 15.8677 112.513 14.983 112.354 14.0046H110.935V17.3111H108.937V9.04478H110.935V12.248H112.407C112.565 11.318 113.09 10.4397 113.879 9.87141C114.668 9.19977 115.667 8.88978 116.666 8.94145ZM116.666 15.7612C117.35 15.7612 117.981 15.5029 118.401 15.0379C119.295 13.9529 119.295 12.3513 118.401 11.2664C117.928 10.8014 117.297 10.5431 116.666 10.5431C116.035 10.5431 115.404 10.8014 114.931 11.2664C114.037 12.3513 114.037 13.9529 114.931 15.0379C115.404 15.5029 116.035 15.7612 116.666 15.7612Z" fill="#262626"/>
</svg>
